<svg xmlns="http://www.w3.org/2000/svg" xmlns:xlink="http://www.w3.org/1999/xlink" width="500" zoomAndPan="magnify" viewBox="0 0 375 374.999991" height="500" preserveAspectRatio="xMidYMid meet" version="1.0"><defs><clipPath id="d3bcd0d28f"><path d="M 24.203125 231 L 350.453125 231 L 350.453125 374 L 24.203125 374 Z M 24.203125 231 " clip-rule="nonzero"/></clipPath></defs><path fill="#2d4af1" d="M 187.511719 277.441406 C 187.523438 277.441406 187.535156 277.441406 187.535156 277.441406 C 198.808594 277.441406 210.34375 269.632812 210.605469 254.695312 L 210.605469 82.648438 L 241.410156 113.457031 C 252.144531 123.863281 265.847656 121.191406 273.84375 113.214844 C 281.824219 105.234375 284.476562 91.535156 274.011719 80.726562 L 203.851562 10.570312 C 202.011719 8.714844 199.769531 7.207031 196.960938 5.941406 C 188.234375 2.074219 177.878906 3.925781 171.171875 10.546875 L 101.132812 80.585938 C 94.359375 86.894531 92.394531 96.789062 96.128906 105.792969 C 99.78125 114.601562 107.820312 120.175781 116.582031 120.175781 C 122.730469 120.183594 129.121094 117.933594 133.65625 113.394531 L 164.394531 82.648438 L 164.394531 254.6875 C 164.621094 269.609375 176.199219 277.429688 187.511719 277.441406 Z M 187.511719 277.441406 " fill-opacity="1" fill-rule="nonzero"/><g clip-path="url(#d3bcd0d28f)"><path fill="#2d4af1" d="M 24.039062 254.59375 L 24.039062 280.160156 C 24.039062 331.59375 65.886719 373.441406 117.316406 373.441406 L 257.683594 373.441406 C 309.113281 373.441406 350.960938 331.59375 350.960938 280.160156 L 350.960938 254.59375 C 350.960938 241.859375 340.597656 231.496094 327.867188 231.496094 C 315.125 231.496094 304.761719 241.859375 304.761719 254.59375 L 304.761719 280.160156 C 304.761719 306.117188 283.640625 327.238281 257.683594 327.238281 L 117.316406 327.238281 C 91.359375 327.238281 70.238281 306.117188 70.238281 280.160156 L 70.238281 254.59375 C 70.238281 241.859375 59.875 231.496094 47.132812 231.496094 C 34.402344 231.496094 24.039062 241.859375 24.039062 254.59375 Z M 24.039062 254.59375 " fill-opacity="1" fill-rule="nonzero"/></g></svg>